<?xml version="1.0" encoding="UTF-8"?>
<svg xmlns="http://www.w3.org/2000/svg" xmlns:xlink="http://www.w3.org/1999/xlink" viewBox="0 0 30 30" width="30px" height="30px">
<g id="surface4903622">
<path style=" stroke:none;fill-rule:nonzero;fill:rgb(100%,100%,100%);fill-opacity:1;" d="M 1.5 13.5 L 28.5 13.5 L 28.5 16.5 L 1.5 16.5 Z M 1.5 13.5 "/>
<path style=" stroke:none;fill-rule:nonzero;fill:rgb(0%,0%,0%);fill-opacity:1;" d="M 28 14 L 28 16 L 2 16 L 2 14 L 28 14 M 29 13 L 1 13 L 1 17 L 29 17 Z M 29 13 "/>
<path style=" stroke:none;fill-rule:nonzero;fill:rgb(100%,100%,100%);fill-opacity:1;" d="M 1.5 5.5 L 28.5 5.5 L 28.5 8.5 L 1.5 8.5 Z M 1.5 5.5 "/>
<path style=" stroke:none;fill-rule:nonzero;fill:rgb(0%,0%,0%);fill-opacity:1;" d="M 28 6 L 28 8 L 2 8 L 2 6 L 28 6 M 29 5 L 1 5 L 1 9 L 29 9 Z M 29 5 "/>
<path style=" stroke:none;fill-rule:nonzero;fill:rgb(100%,100%,100%);fill-opacity:1;" d="M 1.5 21.5 L 28.5 21.5 L 28.5 24.5 L 1.5 24.5 Z M 1.5 21.5 "/>
<path style=" stroke:none;fill-rule:nonzero;fill:rgb(0%,0%,0%);fill-opacity:1;" d="M 28 22 L 28 24 L 2 24 L 2 22 L 28 22 M 29 21 L 1 21 L 1 25 L 29 25 Z M 29 21 "/>
</g>
</svg>
